<?xml version="1.0" encoding="utf-8"?>
<!-- Generator: Adobe Illustrator 28.0.0, SVG Export Plug-In . SVG Version: 6.00 Build 0)  -->
<svg version="1.1" xmlns="http://www.w3.org/2000/svg" xmlns:xlink="http://www.w3.org/1999/xlink" x="0px" y="0px"
	 viewBox="0 0 500 500" style="enable-background:new 0 0 500 500;" xml:space="preserve">
<style type="text/css">
	.st0{fill:url(#SVGID_1_);}
	.st1{fill:url(#SVGID_00000094616870401801935290000004255754235447404428_);}
	.st2{fill:url(#SVGID_00000109016091594537218620000013955511024078597249_);}
	.st3{fill:url(#SVGID_00000017515799948207575620000018393473880740245120_);}
	.st4{fill:none;stroke:#FFFFFF;stroke-width:20;stroke-miterlimit:10;}
	.st5{fill:url(#SVGID_00000172428818117392842210000009774363103295011002_);}
	.st6{fill:url(#SVGID_00000003066992678873620880000013182180503797586595_);}
	.st7{fill:#D1D3D4;}
	.st8{fill:url(#SVGID_00000021080634753502761840000004000328281912145826_);}
	.st9{fill:url(#SVGID_00000155850266524537642530000014797775660738756481_);}
	.st10{fill:url(#SVGID_00000137852058861769841090000011133730709511341984_);}
	.st11{fill:url(#SVGID_00000065793109802287127330000001951290931445135018_);}
	.st12{fill:#FFFFFF;stroke:#FFFFFF;stroke-width:2.4598;}
	.st13{fill:url(#SVGID_00000046318622088134675340000001997244802392401599_);}
	.st14{fill:url(#SVGID_00000034788398562083812640000000132325102884831360_);}
	.st15{fill:url(#SVGID_00000044885837007688245840000017743898156363925405_);}
	.st16{fill:#9E2323;}
	.st17{fill:url(#SVGID_00000034777932942103190320000010683678433748970686_);}
	.st18{fill:url(#SVGID_00000011008354101667496610000016579351064162205597_);}
	.st19{fill:url(#SVGID_00000044154360584453602410000010744592746556635579_);}
	.st20{fill:#D90000;}
	.st21{fill:url(#SVGID_00000140701080927929493760000006804907645257617303_);}
	.st22{fill:url(#SVGID_00000071544285140137386440000017497616447218367923_);}
	.st23{fill:#ED6464;}
</style>
<g id="Laag_1">
	<g>
		<linearGradient id="SVGID_1_" gradientUnits="userSpaceOnUse" x1="178.4584" y1="250" x2="321.5416" y2="250">
			<stop  offset="0" style="stop-color:#A7A9AC"/>
			<stop  offset="1" style="stop-color:#000000"/>
		</linearGradient>
		<path class="st0" d="M250,321.5c-39.4,0-71.5-32.1-71.5-71.5s32.1-71.5,71.5-71.5c39.4,0,71.5,32.1,71.5,71.5
			S289.4,321.5,250,321.5z M250,203c-25.9,0-47,21.1-47,47s21.1,47,47,47s47-21.1,47-47S275.9,203,250,203z"/>
		
			<linearGradient id="SVGID_00000023965705974041954660000002418880080987947146_" gradientUnits="userSpaceOnUse" x1="314.6633" y1="250" x2="185.3367" y2="250">
			<stop  offset="0" style="stop-color:#808285"/>
			<stop  offset="1" style="stop-color:#000000"/>
		</linearGradient>
		<path style="fill:url(#SVGID_00000023965705974041954660000002418880080987947146_);" d="M250,314.7c-35.7,0-64.7-29-64.7-64.7
			s29-64.7,64.7-64.7c35.7,0,64.7,29,64.7,64.7S285.7,314.7,250,314.7z M250,207.5c-23.4,0-42.5,19.1-42.5,42.5s19.1,42.5,42.5,42.5
			s42.5-19.1,42.5-42.5S273.4,207.5,250,207.5z"/>
		
			<radialGradient id="SVGID_00000170964914418936028240000007116438062094685619_" cx="250.0001" cy="250" r="59.2639" gradientUnits="userSpaceOnUse">
			<stop  offset="0.7756" style="stop-color:#000000"/>
			<stop  offset="0.9073" style="stop-color:#000000"/>
		</radialGradient>
		<circle style="fill:url(#SVGID_00000170964914418936028240000007116438062094685619_);" cx="250" cy="250" r="59.3"/>
		
			<radialGradient id="SVGID_00000122701826172511474770000000070313108672330150_" cx="250.0001" cy="250" r="59.2639" gradientUnits="userSpaceOnUse">
			<stop  offset="0.7756" style="stop-color:#000000"/>
			<stop  offset="0.9073" style="stop-color:#000000"/>
		</radialGradient>
		<circle style="fill:url(#SVGID_00000122701826172511474770000000070313108672330150_);" cx="250" cy="250" r="59.3"/>
	</g>
</g>
<g id="meters">
</g>
</svg>
