<?xml version="1.0" encoding="utf-8"?>
<!-- Generator: Adobe Illustrator 28.0.0, SVG Export Plug-In . SVG Version: 6.00 Build 0)  -->
<svg version="1.1" xmlns="http://www.w3.org/2000/svg" xmlns:xlink="http://www.w3.org/1999/xlink" x="0px" y="0px"
	 viewBox="0 0 500 500" style="enable-background:new 0 0 500 500;" xml:space="preserve">
<style type="text/css">
	.st0{fill:url(#SVGID_1_);}
	.st1{fill:url(#SVGID_00000144332653966870450180000006331699184676089524_);}
	.st2{fill:url(#SVGID_00000134927886588596760070000010918704331744292761_);}
	.st3{fill:url(#SVGID_00000163055567440036915550000001940364060771038346_);}
	.st4{fill:none;stroke:#FFFFFF;stroke-width:20;stroke-miterlimit:10;}
	.st5{fill:url(#SVGID_00000039815262584164738150000011004356919910465423_);}
	.st6{fill:url(#SVGID_00000002363269041204006530000017965267791190670504_);}
	.st7{fill:#D1D3D4;}
	.st8{fill:url(#SVGID_00000054959043884115919970000007295005661675438496_);}
	.st9{fill:url(#SVGID_00000129194071915246634750000003372702161649660307_);}
	.st10{fill:url(#SVGID_00000010293275532785212210000002575139149978843800_);}
	.st11{fill:url(#SVGID_00000102529697189201637470000006914637060530190464_);}
	.st12{fill:#FFFFFF;stroke:#FFFFFF;stroke-width:2.4598;}
	.st13{fill:url(#SVGID_00000078731589825797398090000016543888460367341210_);}
	.st14{fill:url(#SVGID_00000132804515149020314730000007313741604604536756_);}
	.st15{fill:url(#SVGID_00000173858398936030985070000010973002345090651790_);}
	.st16{fill:#9E2323;}
	.st17{fill:url(#SVGID_00000142885150839139001450000001442704784378446982_);}
	.st18{fill:url(#SVGID_00000013191955811126877280000011692700948931642510_);}
	.st19{fill:url(#SVGID_00000090992408699021483970000012054547245047494799_);}
	.st20{fill:#D90000;}
	.st21{fill:url(#SVGID_00000070834645432200159180000012029011302700437157_);}
	.st22{fill:url(#SVGID_00000147192934127710224380000011063861867429967271_);}
	.st23{fill:#ED6464;}
</style>
<g id="Laag_1">
	<g>
		<linearGradient id="SVGID_1_" gradientUnits="userSpaceOnUse" x1="69.0804" y1="250" x2="430.9196" y2="250">
			<stop  offset="0" style="stop-color:#2E2E2E"/>
			<stop  offset="1" style="stop-color:#000000"/>
		</linearGradient>
		<path class="st0" d="M250,430.9c-99.8,0-180.9-81.2-180.9-180.9S150.2,69.1,250,69.1c99.8,0,180.9,81.2,180.9,180.9
			S349.8,430.9,250,430.9z M250,131.2c-65.5,0-118.8,53.3-118.8,118.8S184.5,368.8,250,368.8S368.8,315.5,368.8,250
			S315.5,131.2,250,131.2z"/>
		
			<linearGradient id="SVGID_00000160174005053304537220000005165743300204762040_" gradientUnits="userSpaceOnUse" x1="413.5253" y1="250" x2="86.4747" y2="250">
			<stop  offset="0" style="stop-color:#2E2E2E"/>
			<stop  offset="1" style="stop-color:#000000"/>
		</linearGradient>
		<path style="fill:url(#SVGID_00000160174005053304537220000005165743300204762040_);" d="M250,413.5
			c-90.2,0-163.5-73.4-163.5-163.5S159.8,86.5,250,86.5c90.2,0,163.5,73.4,163.5,163.5S340.2,413.5,250,413.5z M250,142.6
			c-59.2,0-107.4,48.2-107.4,107.4S190.8,357.4,250,357.4S357.4,309.2,357.4,250S309.2,142.6,250,142.6z"/>
		
			<radialGradient id="SVGID_00000099619697255893487130000013056330953146881195_" cx="250.0002" cy="249.9999" r="149.8708" gradientUnits="userSpaceOnUse">
			<stop  offset="0.3317" style="stop-color:#2D2D2D"/>
			<stop  offset="0.6673" style="stop-color:#181818"/>
			<stop  offset="1" style="stop-color:#000000"/>
		</radialGradient>
		<circle style="fill:url(#SVGID_00000099619697255893487130000013056330953146881195_);" cx="250" cy="250" r="149.9"/>
		<g>
			
				<image style="overflow:visible;opacity:0.75;" width="314" height="255" xlink:href="72BE288FB11E17D8.png"  transform="matrix(1 0 0 1 93 100)">
			</image>
			<g>
				
					<linearGradient id="SVGID_00000121967508416798524490000001488974418788558732_" gradientUnits="userSpaceOnUse" x1="105.0816" y1="220.4152" x2="394.9193" y2="220.4152">
					<stop  offset="0" style="stop-color:#00F33B"/>
					<stop  offset="0.1809" style="stop-color:#A2D71D"/>
					<stop  offset="0.2809" style="stop-color:#FDC70C"/>
					<stop  offset="0.6632" style="stop-color:#ED683C"/>
					<stop  offset="0.7139" style="stop-color:#EB583B"/>
					<stop  offset="0.7846" style="stop-color:#EA493B"/>
					<stop  offset="0.8687" style="stop-color:#E9413A"/>
					<stop  offset="1" style="stop-color:#E93E3A"/>
				</linearGradient>
				<path style="fill:url(#SVGID_00000121967508416798524490000001488974418788558732_);" d="M366.8,335.7l-20-14.7
					c15.2-20.7,23.3-45.3,23.3-71c0-66.2-53.9-120.1-120.1-120.1S129.9,183.8,129.9,250c0,25.8,8,50.3,23.3,71l-20,14.7
					c-18.4-25-28.1-54.7-28.1-85.7c0-79.9,65-144.9,144.9-144.9s144.9,65,144.9,144.9C394.9,281.1,385.2,310.7,366.8,335.7z"/>
			</g>
		</g>
	</g>
</g>
<g id="meters">
	<g>
		<g>
			<g>
				
					<image style="overflow:visible;opacity:0.75;" width="170" height="134" xlink:href="72BE288FB11E17D9.png"  transform="matrix(1 0 0 1 131 219)">
				</image>
				<g>
					<polygon class="st20" points="273.2,227.9 278.7,235.5 141,331 139.8,329.3 					"/>
				</g>
			</g>
		</g>
		
			<radialGradient id="SVGID_00000043425083839464203980000012131567611927638968_" cx="-390.1028" cy="399.9362" r="19.702" gradientTransform="matrix(0.5887 0.8084 -0.8084 0.5887 797.8993 332.7972)" gradientUnits="userSpaceOnUse">
			<stop  offset="0" style="stop-color:#515151"/>
			<stop  offset="1" style="stop-color:#000000"/>
		</radialGradient>
		<path style="fill:url(#SVGID_00000043425083839464203980000012131567611927638968_);" d="M269.2,246.7l13.9-10.1l-11.3-15.5
			l-13.9,10.1c-7.5-4.2-17.1-3.9-24.5,1.5c-10.2,7.4-12.4,21.6-5,31.8c7.4,10.2,21.6,12.4,31.8,5
			C267.6,264.1,270.8,255.1,269.2,246.7z"/>
	</g>
</g>
</svg>
