<?xml version="1.0" encoding="utf-8"?>
<!-- Generator: Adobe Illustrator 28.0.0, SVG Export Plug-In . SVG Version: 6.00 Build 0)  -->
<svg version="1.1" xmlns="http://www.w3.org/2000/svg" xmlns:xlink="http://www.w3.org/1999/xlink" x="0px" y="0px"
	 viewBox="0 0 500 500" style="enable-background:new 0 0 500 500;" xml:space="preserve">
<style type="text/css">
	.st0{fill:url(#SVGID_1_);}
	.st1{fill:url(#SVGID_00000152251597427162577450000001587702493402852737_);}
	.st2{fill:url(#SVGID_00000151521843879897360220000009190831309646170003_);}
	.st3{fill:url(#SVGID_00000137114454517474844550000017568007927545071234_);}
	.st4{fill:none;stroke:#FFFFFF;stroke-width:20;stroke-miterlimit:10;}
	.st5{fill:url(#SVGID_00000053522982674455498910000007710974372693795772_);}
	.st6{fill:url(#SVGID_00000071548640122721143270000011362417419130054281_);}
	.st7{fill:#D1D3D4;}
	.st8{fill:url(#SVGID_00000057109582884406809020000006242163020109558688_);}
	.st9{fill:url(#SVGID_00000098212519069341536500000008785626795185469857_);}
	.st10{fill:url(#SVGID_00000004533268468688403670000012269992557296038073_);}
	.st11{fill:url(#SVGID_00000011012856003588286260000012004022991337319828_);}
	.st12{fill:#FFFFFF;stroke:#FFFFFF;stroke-width:2.4598;}
	.st13{fill:url(#SVGID_00000150811914658966449280000008643388588761792418_);}
	.st14{fill:url(#SVGID_00000083769388029290113750000011551739216377037710_);}
	.st15{fill:url(#SVGID_00000111156878342113272530000018267712329680329624_);}
	.st16{fill:#9E2323;}
	.st17{fill:url(#SVGID_00000081632229186531500170000004138110495278714810_);}
	.st18{fill:url(#SVGID_00000077317167120177194460000008397616232012593842_);}
	.st19{fill:url(#SVGID_00000109014460639243968860000018107834018332137610_);}
	.st20{fill:#D90000;}
	.st21{fill:url(#SVGID_00000093879544873334761810000003870712415218095281_);}
	.st22{fill:url(#SVGID_00000011714398563908276260000000400023969253174660_);}
	.st23{fill:#ED6464;}
</style>
<g id="Laag_1">
	<g transform="matrix(1.3046 0 0 1.3046 -1015 -251.69)">
		<path class="st12" d="M1044.1,384.6c0,41.1-33.3,74.5-74.5,74.5c-41.1,0-74.5-33.3-74.5-74.5c0-41.1,33.3-74.5,74.5-74.5
			C1010.8,310.1,1044.1,343.5,1044.1,384.6L1044.1,384.6z"/>
		<g transform="matrix(8.6135 0 0 8.6135 439.74 -248.72)">
			<g transform="matrix(.37033 0 0 .37033 -554.67 -360.69)">
				
					<linearGradient id="SVGID_1_" gradientUnits="userSpaceOnUse" x1="2038.7556" y1="843.293" x2="2061.4871" y2="863.147" gradientTransform="matrix(4.1615 0 0 -4.1615 -6813.8076 4676.1514)">
					<stop  offset="0" style="stop-color:#9E2323"/>
					<stop  offset="1" style="stop-color:#9E2323;stop-opacity:0"/>
				</linearGradient>
				<path class="st0" d="M1687.5,1172.5c0,13-10.6,23.6-23.6,23.6c-13,0-23.6-10.6-23.6-23.6c0-13,10.6-23.6,23.6-23.6
					C1676.9,1148.9,1687.5,1159.5,1687.5,1172.5z"/>
				
					<linearGradient id="SVGID_00000003813942256853149320000003088328345663677365_" gradientUnits="userSpaceOnUse" x1="2032.5183" y1="837.9641" x2="2056.2727" y2="857.8181" gradientTransform="matrix(4.0237 0 0 -4.0237 -6533.2305 4560.019)">
					<stop  offset="0" style="stop-color:#731A1A"/>
					<stop  offset="0.5" style="stop-color:#881E1E;stop-opacity:0.498"/>
					<stop  offset="1" style="stop-color:#9E2323;stop-opacity:0"/>
				</linearGradient>
				<path style="fill:url(#SVGID_00000003813942256853149320000003088328345663677365_);" d="M1686.7,1172.5
					c0,12.6-10.2,22.8-22.8,22.8c-12.6,0-22.8-10.2-22.8-22.8c0-12.6,10.2-22.8,22.8-22.8
					C1676.5,1149.7,1686.7,1159.9,1686.7,1172.5z"/>
				
					<linearGradient id="SVGID_00000045588608071470255650000003877592222586253697_" gradientUnits="userSpaceOnUse" x1="2040.3307" y1="843.446" x2="2019.6775" y2="825.3505" gradientTransform="matrix(2.4317 0 0 -2.4317 -3291.5571 3218.2312)">
					<stop  offset="0" style="stop-color:#E68E8E"/>
					<stop  offset="1" style="stop-color:#9E2323;stop-opacity:0"/>
				</linearGradient>
				<path style="fill:url(#SVGID_00000045588608071470255650000003877592222586253697_);" d="M1677.7,1172.5
					c0,7.6-6.2,13.8-13.8,13.8c-7.6,0-13.8-6.2-13.8-13.8c0-7.6,6.2-13.8,13.8-13.8C1671.5,1158.7,1677.7,1164.9,1677.7,1172.5z"/>
				<path class="st16" d="M1676.9,1172.5c0,7.2-5.8,13-13,13c-7.2,0-13-5.8-13-13c0-7.2,5.8-13,13-13
					C1671.1,1159.5,1676.9,1165.3,1676.9,1172.5z"/>
				<g transform="translate(-179.34,-8.736)">
					
						<linearGradient id="SVGID_00000171694935238762634890000005353984287054085012_" gradientUnits="userSpaceOnUse" x1="2219.1956" y1="855.0854" x2="2188.6313" y2="832.386" gradientTransform="matrix(4.1615 0 0 -4.1615 -7382.9243 4719.7744)">
						<stop  offset="0" style="stop-color:#E8E8E8"/>
						<stop  offset="1" style="stop-color:#CDCDCD"/>
					</linearGradient>
					<path style="fill:url(#SVGID_00000171694935238762634890000005353984287054085012_);" d="M1831.1,1171c1.8-1.7,3.8-3.1,5.9-4.1
						c1.8-0.8,3.8-1.3,5.8-1.3c2-0.1,4.1,0.3,6,0.9l-0.3,0.9c1.9,0,4,0.3,6,0.8c-1.4-1.6-3-3.1-4.8-4.4l-0.3,0.8
						c-2.2-0.7-4.4-1.1-6.7-1c-2.3,0.1-4.5,0.6-6.6,1.5c-2.4,1.1-4.6,2.7-6.5,4.4L1831.1,1171z"/>
					
						<linearGradient id="SVGID_00000027580829462260739380000012601984209267066001_" gradientUnits="userSpaceOnUse" x1="2222.4785" y1="850.6647" x2="2191.9143" y2="827.9654" gradientTransform="matrix(4.1615 0 0 -4.1615 -7382.9243 4719.7744)">
						<stop  offset="0" style="stop-color:#E8E8E8"/>
						<stop  offset="1" style="stop-color:#CDCDCD"/>
					</linearGradient>
					<path style="fill:url(#SVGID_00000027580829462260739380000012601984209267066001_);" d="M1858.9,1176.8
						c0.4,2.4,0.5,4.8,0.1,7.2c-0.3,2-1,3.9-2.1,5.6c-1.1,1.7-2.5,3.2-4.1,4.5l-0.6-0.8c-1.1,1.6-2.4,3.2-4,4.6
						c2.1-0.3,4.2-0.7,6.4-1.6l-0.5-0.6c1.8-1.4,3.4-3.1,4.6-5c1.2-1.9,2-4.1,2.4-6.3c0.4-2.6,0.3-5.3-0.1-7.9L1858.9,1176.8z"/>
					
						<linearGradient id="SVGID_00000003095470997393788260000014437985488194273974_" gradientUnits="userSpaceOnUse" x1="2220.6553" y1="853.1199" x2="2190.0911" y2="830.4205" gradientTransform="matrix(4.1615 0 0 -4.1615 -7382.9243 4719.7744)">
						<stop  offset="0" style="stop-color:#E8E8E8"/>
						<stop  offset="1" style="stop-color:#CDCDCD"/>
					</linearGradient>
					<path style="fill:url(#SVGID_00000003095470997393788260000014437985488194273974_);" d="M1840,1197.1
						c-2.3-0.8-4.5-1.8-6.4-3.3c-1.6-1.2-2.9-2.8-3.9-4.5c-1-1.8-1.7-3.7-2-5.7l1-0.2c-0.9-1.7-1.6-3.7-2.2-5.7
						c-0.7,2-1.3,4.1-1.6,6.4l0.8-0.1c0.4,2.2,1.1,4.4,2.3,6.4c1.1,2,2.7,3.7,4.5,5c2.1,1.6,4.5,2.8,7,3.6L1840,1197.1z"/>
				</g>
			</g>
		</g>
	</g>
</g>
<g id="meters">
</g>
</svg>
