<?xml version="1.0" encoding="utf-8"?>
<!-- Generator: Adobe Illustrator 28.0.0, SVG Export Plug-In . SVG Version: 6.00 Build 0)  -->
<svg version="1.1" xmlns="http://www.w3.org/2000/svg" xmlns:xlink="http://www.w3.org/1999/xlink" x="0px" y="0px"
	 viewBox="0 0 500 500" style="enable-background:new 0 0 500 500;" xml:space="preserve">
<style type="text/css">
	.st0{fill:url(#SVGID_1_);}
	.st1{fill:url(#SVGID_00000134220917023357187980000000936363846985144248_);}
	.st2{fill:url(#SVGID_00000073718342840427865440000012076229763872128932_);}
	.st3{fill:url(#SVGID_00000038394870761597698980000007591747515201586615_);}
	.st4{fill:none;stroke:#FFFFFF;stroke-width:20;stroke-miterlimit:10;}
	.st5{fill:url(#SVGID_00000019661640279011455590000013629208169376753024_);}
	.st6{fill:url(#SVGID_00000101823506561002502310000017909870211624357534_);}
	.st7{fill:#D1D3D4;}
	.st8{fill:url(#SVGID_00000071531831410238769460000008977887165840946604_);}
	.st9{fill:url(#SVGID_00000147923862191987600560000013160413981600392335_);}
	.st10{fill:url(#SVGID_00000034088573970863836300000006725313200348519809_);}
	.st11{fill:url(#SVGID_00000063616201728890594560000014712740346121882770_);}
</style>
<g id="Laag_1">
	<g>
		<linearGradient id="SVGID_1_" gradientUnits="userSpaceOnUse" x1="68.9661" y1="250" x2="431.0339" y2="250">
			<stop  offset="0" style="stop-color:#4F4F4F"/>
			<stop  offset="8.339956e-02" style="stop-color:#535454"/>
			<stop  offset="0.1786" style="stop-color:#616162"/>
			<stop  offset="0.2796" style="stop-color:#767778"/>
			<stop  offset="0.384" style="stop-color:#949698"/>
			<stop  offset="0.439" style="stop-color:#A7A9AC"/>
			<stop  offset="0.5063" style="stop-color:#9B9DA0"/>
			<stop  offset="0.628" style="stop-color:#7C7E80"/>
			<stop  offset="0.7902" style="stop-color:#4A4B4D"/>
			<stop  offset="0.9849" style="stop-color:#060606"/>
			<stop  offset="1" style="stop-color:#000000"/>
		</linearGradient>
		<path class="st0" d="M250,431c-99.8,0-181-81.2-181-181c0-99.8,81.2-181,181-181c99.8,0,181,81.2,181,181
			C431,349.8,349.8,431,250,431z M250,87c-89.9,0-163,73.1-163,163c0,89.9,73.1,163,163,163c89.9,0,163-73.1,163-163
			C413,160.1,339.9,87,250,87z"/>
		
			<radialGradient id="SVGID_00000080172034667914222640000016983545871561663665_" cx="249.9999" cy="250.0001" r="172.0339" gradientUnits="userSpaceOnUse">
			<stop  offset="0" style="stop-color:#4F4F4F"/>
			<stop  offset="0.208" style="stop-color:#4A4A4A"/>
			<stop  offset="0.4455" style="stop-color:#3C3C3C"/>
			<stop  offset="0.6974" style="stop-color:#262626"/>
			<stop  offset="0.9579" style="stop-color:#060606"/>
			<stop  offset="1" style="stop-color:#000000"/>
		</radialGradient>
		<circle style="fill:url(#SVGID_00000080172034667914222640000016983545871561663665_);" cx="250" cy="250" r="172"/>
		<g>
			
				<rect x="209.5" y="88" transform="matrix(0.9655 -0.2606 0.2606 0.9655 -21.0976 58.9991)" class="st7" width="5" height="42.1"/>
			
				<rect x="144.1" y="125.9" transform="matrix(0.7058 -0.7084 0.7084 0.7058 -60.9863 147.0803)" class="st7" width="5" height="42.1"/>
			
				<rect x="106.4" y="191.4" transform="matrix(0.2571 -0.9664 0.9664 0.2571 -124.4061 263.1265)" class="st7" width="5" height="42.1"/>
			
				<rect x="88" y="285.5" transform="matrix(0.9655 -0.2606 0.2606 0.9655 -71.2822 38.3672)" class="st7" width="42.1" height="5"/>
			
				<rect x="125.9" y="350.9" transform="matrix(0.7058 -0.7084 0.7084 0.7058 -207.1125 208.0679)" class="st7" width="42.1" height="5"/>
			
				<rect x="350.9" y="332" transform="matrix(0.7058 -0.7084 0.7084 0.7058 -146.1198 354.2064)" class="st7" width="5" height="42.1"/>
			
				<rect x="388.6" y="266.5" transform="matrix(0.2571 -0.9664 0.9664 0.2571 12.676 591.539)" class="st7" width="5" height="42.1"/>
			
				<rect x="369.9" y="209.5" transform="matrix(0.9655 -0.2606 0.2606 0.9655 -41.7248 109.1807)" class="st7" width="42.1" height="5"/>
			
				<rect x="332" y="144.1" transform="matrix(0.7058 -0.7084 0.7084 0.7058 6.411232e-03 293.2015)" class="st7" width="42.1" height="5"/>
			
				<rect x="266.5" y="106.4" transform="matrix(0.257 -0.9664 0.9664 0.257 108.3513 358.7972)" class="st7" width="42.1" height="5"/>
		</g>
		<g>
			<rect x="248.2" y="83" transform="matrix(1 -1.821555e-03 1.821555e-03 1 -0.1759 0.455)" class="st7" width="3" height="27.6"/>
			
				<rect x="171.6" y="103.6" transform="matrix(0.8651 -0.5016 0.5016 0.8651 -35.5497 102.6821)" class="st7" width="3" height="27.6"/>
			
				<rect x="115.7" y="159.8" transform="matrix(0.4984 -0.8669 0.8669 0.4984 -91.7577 188.6581)" class="st7" width="3" height="27.6"/>
			
				<rect x="83" y="248.8" transform="matrix(1 -1.953121e-03 1.953121e-03 1 -0.4886 0.1895)" class="st7" width="27.6" height="3"/>
			
				<rect x="103.6" y="325.4" transform="matrix(0.8651 -0.5016 0.5016 0.8651 -148.0983 102.9888)" class="st7" width="27.6" height="3"/>
			
				<rect x="381.3" y="312.6" transform="matrix(0.4984 -0.8669 0.8669 0.4984 -90.9223 495.5934)" class="st7" width="3" height="27.6"/>
			
				<rect x="389.4" y="248.2" transform="matrix(1 -1.953121e-03 1.953121e-03 1 -0.487 0.788)" class="st7" width="27.6" height="3"/>
			
				<rect x="368.8" y="171.6" transform="matrix(0.8651 -0.5016 0.5016 0.8651 -35.2437 215.2314)" class="st7" width="27.6" height="3"/>
			
				<rect x="312.6" y="115.7" transform="matrix(0.4984 -0.8669 0.8669 0.4984 62.1322 341.7116)" class="st7" width="27.6" height="3"/>
		</g>
	</g>
</g>
<g id="meters">
</g>
</svg>
