<?xml version="1.0" encoding="utf-8"?>
<!-- Generator: Adobe Illustrator 28.0.0, SVG Export Plug-In . SVG Version: 6.00 Build 0)  -->
<svg version="1.1" id="Laag_1" xmlns="http://www.w3.org/2000/svg" xmlns:xlink="http://www.w3.org/1999/xlink" x="0px" y="0px"
	 viewBox="0 0 500 500" style="enable-background:new 0 0 500 500;" xml:space="preserve">
<style type="text/css">
	.st0{fill:#FFFFFF;stroke:#FFFFFF;stroke-width:4.1866;stroke-miterlimit:6.8079;}
	.st1{fill:url(#SVGID_1_);}
	.st2{fill:url(#SVGID_00000024719115299656141890000006457072764601611171_);}
	.st3{fill:url(#SVGID_00000152237129428086618940000004727202243308193671_);}
	.st4{fill:#9E2323;}
	.st5{fill:#FFFFFF;}
</style>
<g id="Laag_1_00000035494617377338903550000005969452530884524970_">
	<g transform="matrix(1.3046 0 0 1.3046 -1015 -251.69)">
		<path class="st0" d="M1044.1,384.6c0,41.1-33.3,74.5-74.5,74.5c-41.1,0-74.5-33.3-74.5-74.5c0-41.1,33.3-74.5,74.5-74.5
			S1044.1,343.5,1044.1,384.6L1044.1,384.6z"/>
		<g transform="matrix(8.6135 0 0 8.6135 439.74 -248.72)">
			<g transform="matrix(.37033 0 0 .37033 -554.67 -360.69)">
				
					<linearGradient id="SVGID_1_" gradientUnits="userSpaceOnUse" x1="2161.1409" y1="952.3654" x2="2183.8723" y2="972.2194" gradientTransform="matrix(72.0678 0 0 -72.0678 -154078.1875 69801.6484)">
					<stop  offset="0" style="stop-color:#9E2323"/>
					<stop  offset="1" style="stop-color:#9E2323;stop-opacity:0"/>
				</linearGradient>
				<path class="st1" d="M1687.5,1172.5c0,13-10.6,23.6-23.6,23.6s-23.6-10.6-23.6-23.6s10.6-23.6,23.6-23.6
					S1687.5,1159.5,1687.5,1172.5z"/>
				
					<linearGradient id="SVGID_00000181784648359686090970000006169492573165790600_" gradientUnits="userSpaceOnUse" x1="2160.7375" y1="952.1012" x2="2184.4919" y2="971.9552" gradientTransform="matrix(69.6816 0 0 -69.6816 -148918.6094 67532.2109)">
					<stop  offset="0" style="stop-color:#731A1A"/>
					<stop  offset="0.5" style="stop-color:#881E1E;stop-opacity:0.498"/>
					<stop  offset="1" style="stop-color:#9E2323;stop-opacity:0"/>
				</linearGradient>
				<path style="fill:url(#SVGID_00000181784648359686090970000006169492573165790600_);" d="M1686.7,1172.5
					c0,12.6-10.2,22.8-22.8,22.8c-12.6,0-22.8-10.2-22.8-22.8c0-12.6,10.2-22.8,22.8-22.8S1686.7,1159.9,1686.7,1172.5z"/>
				
					<linearGradient id="SVGID_00000108271139451406221710000004053977266378408081_" gradientUnits="userSpaceOnUse" x1="2160.3503" y1="953.2558" x2="2139.6973" y2="935.1603" gradientTransform="matrix(42.1115 0 0 -42.1115 -89305.6875 41310.2734)">
					<stop  offset="0" style="stop-color:#E68E8E"/>
					<stop  offset="1" style="stop-color:#9E2323;stop-opacity:0"/>
				</linearGradient>
				<path style="fill:url(#SVGID_00000108271139451406221710000004053977266378408081_);" d="M1677.7,1172.5
					c0,7.6-6.2,13.8-13.8,13.8c-7.6,0-13.8-6.2-13.8-13.8c0-7.6,6.2-13.8,13.8-13.8S1677.7,1164.9,1677.7,1172.5z"/>
				<path class="st4" d="M1676.9,1172.5c0,7.2-5.8,13-13,13s-13-5.8-13-13s5.8-13,13-13S1676.9,1165.3,1676.9,1172.5z"/>
			</g>
		</g>
	</g>
</g>
<g id="meters">
</g>
<g>
	<path class="st5" d="M204.5,239.4h9.1c3.9,0,6.9,2.5,6.9,6c0,2.3-1.2,4.2-3.4,5.2v-0.4c2.4,0.7,3.2,2.5,3.2,4.4v3.1
		c0,0.9,0.2,1.8,0.9,2.9h-3.9c-0.5-0.7-0.7-1.6-0.7-2.8v-3.1c0-1.7-1-2.7-3-2.7h-5.3v8.7h-3.7V239.4z M213.4,248.9
		c1.9,0,3.3-1.4,3.3-3.3c0-1.9-1.4-3.2-3.3-3.2h-5.3v6.5H213.4z"/>
	<path class="st5" d="M224.3,239.4h14.9v3H228v5.8h10.5v3H228v6.4h11.7v3h-15.4V239.4z"/>
	<path class="st5" d="M241.8,253.4h3.7c0.2,2.9,1.9,4.6,4.9,4.6c2.5,0,4.2-1.2,4.2-3.2c0-2.3-2.4-2.8-5.4-3.7
		c-3.3-0.9-6.7-2.2-6.7-6.3c0-4.1,3.4-5.8,7.5-5.8c4.7,0,7.5,2.2,7.8,6.7H254c-0.2-2.6-1.8-3.6-4.2-3.6c-1.9,0-3.7,0.7-3.7,2.6
		c0,2.1,2.1,2.6,4.8,3.3c4.6,1.2,7.4,2.7,7.4,6.6c0,4.5-3.8,6.4-7.8,6.4C245.1,261,242,258.1,241.8,253.4z"/>
	<path class="st5" d="M261.2,239.4h14.9v3h-11.2v5.8h10.5v3h-10.5v6.4h11.7v3h-15.4V239.4z"/>
	<path class="st5" d="M285.1,242.4h-6.7v-3h17.1v3h-6.7v18.2h-3.7V242.4z"/>
</g>
</svg>
